<?xml version="1.0" encoding="UTF-8" standalone="no"?>
<svg
   xmlns:dc="http://purl.org/dc/elements/1.1/"
   xmlns:cc="http://creativecommons.org/ns#"
   xmlns:rdf="http://www.w3.org/1999/02/22-rdf-syntax-ns#"
   xmlns:svg="http://www.w3.org/2000/svg"
   xmlns="http://www.w3.org/2000/svg"
   xmlns:sodipodi="http://sodipodi.sourceforge.net/DTD/sodipodi-0.dtd"
   xmlns:inkscape="http://www.inkscape.org/namespaces/inkscape"
   sodipodi:docname="favicon.svg"
   inkscape:version="1.0 (4035a4fb49, 2020-05-01)"
   id="svg8"
   version="1.1"
   viewBox="0 0 500 500"
   height="500mm"
   width="500mm">
  <defs
     id="defs2" />
  <sodipodi:namedview
     inkscape:window-maximized="1"
     inkscape:window-y="-11"
     inkscape:window-x="-11"
     inkscape:window-height="1334"
     inkscape:window-width="2160"
     units="mm"
     fit-margin-bottom="0"
     fit-margin-right="0"
     fit-margin-left="0"
     fit-margin-top="0"
     showgrid="false"
     inkscape:document-rotation="0"
     inkscape:current-layer="layer1"
     inkscape:document-units="mm"
     inkscape:cy="-125.67442"
     inkscape:cx="1112.9377"
     inkscape:zoom="0.24748737"
     inkscape:pageshadow="2"
     inkscape:pageopacity="0.0"
     borderopacity="1.0"
     bordercolor="#666666"
     pagecolor="#ffffff"
     id="base" />
  <metadata
     id="metadata5">
    <rdf:RDF>
      <cc:Work
         rdf:about="">
        <dc:format>image/svg+xml</dc:format>
        <dc:type
           rdf:resource="http://purl.org/dc/dcmitype/StillImage" />
        <dc:title></dc:title>
      </cc:Work>
    </rdf:RDF>
  </metadata>
  <g
     transform="translate(153.03323,-656.7474)"
     id="layer1"
     inkscape:groupmode="layer"
     inkscape:label="Layer 1">
    <g
       style="stroke-width:1.05247"
       transform="matrix(0.95014339,0,0,0.95014339,9.3545656,38.255453)"
       id="g1157">
      <path
         id="path1065-6"
         d="m 233.21938,901.8698 c -0.12062,-0.11443 -2.89824,-0.76449 -6.17246,-1.44457 -3.27422,-0.68008 -7.14375,-1.5413 -8.59896,-1.91382 -1.45521,-0.37254 -2.9291,-0.66064 -3.2753,-0.64024 -1.14713,0.0676 -0.56346,-3.85987 1.28397,-8.63953 1.06254,-2.74896 1.06656,-2.7408 -1.75469,-3.56442 -1.28667,-0.37563 -3.22387,-0.98827 -4.30488,-1.36142 -1.08101,-0.37316 -1.99107,-0.65011 -2.02234,-0.61546 -0.0313,0.0346 -0.47567,0.8369 -0.98753,1.78279 -2.63816,4.87502 -3.81942,6.74531 -4.23839,6.7106 -0.24082,-0.0199 -0.37259,0.0693 -0.29279,0.19843 0.23302,0.37704 -0.0111,0.29725 -2.86517,-0.93688 -7.756,-3.35367 -12.7544,-5.82537 -13.43237,-6.6423 -0.17719,-0.2135 -0.54573,-0.38819 -0.81894,-0.38819 -0.50516,0 -0.69032,-0.6429 -0.26151,-0.90792 0.12941,-0.08 0.31483,-0.46231 0.41204,-0.84963 0.0972,-0.38732 0.83219,-1.8395 1.63332,-3.22707 0.80113,-1.38756 1.47892,-2.62845 1.5062,-2.75751 0.0273,-0.12907 -1.02193,-0.71203 -2.33162,-1.29547 -2.4515,-1.0921 -5.31696,-2.44236 -8.9698,-4.22678 -2.09063,-1.02128 -2.09063,-1.02128 -3.92864,0.95925 -2.58987,2.79068 -2.76243,2.77168 -7.8473,-0.8637 -3.27398,-2.34072 -5.73778,-4.30462 -7.71009,-6.14575 -0.23381,-0.21828 -1.0409,-0.97056 -1.79351,-1.67173 -0.7526,-0.70116 -1.36837,-1.37704 -1.36837,-1.50195 0,-0.12491 -0.1702,-0.2656 -0.37825,-0.31265 -0.90032,-0.20361 1.87318,-4.43049 5.25328,-8.00609 1.73479,-1.83513 1.73479,-1.83513 1.08807,-2.25938 -0.8596,-0.56388 -4.3756,-4.43316 -4.3756,-4.81524 0,-0.16521 0.23813,-0.0849 0.52917,0.1785 0.51517,0.46622 0.5294,0.46206 0.53814,-0.15743 0.005,-0.34998 0.23902,-1.11257 0.52019,-1.69466 0.28118,-0.58208 0.51525,-1.18402 0.5202,-1.33766 0.005,-0.15363 0.32054,-0.68941 0.70136,-1.19062 0.38081,-0.50121 1.03407,-1.64932 1.45169,-2.55135 0.41759,-0.90203 1.02303,-1.88577 1.34538,-2.18609 0.72623,-0.67658 0.60677,-0.81846 -2.17887,-2.58765 -12.73122,-8.08574 -20.41655,-19.3981 -12.7611,-18.78359 1.38094,0.11085 2.25156,0.4006 4.2771,1.42349 1.39875,0.70637 2.63771,1.32573 2.7532,1.37636 0.11552,0.0506 -0.38775,-0.82364 -1.11837,-1.94281 -5.38969,-8.2562 -7.62701,-17.89715 -4.96358,-21.38906 3.45676,-4.53206 10.95179,0.41145 16.1803,10.67211 0.55616,1.09141 1.35155,2.48208 1.76758,3.09038 0.416,0.6083 0.75636,1.25322 0.75636,1.43316 0,0.17994 0.0676,0.25958 0.15018,0.17698 0.29964,-0.29964 0.42489,-5.75885 0.13213,-5.75885 -0.59327,0 -0.21902,-9.09698 0.65855,-16.00729 2.76331,-21.75959 8.792,-47.62476 16.12657,-69.18854 4.51241,-13.26658 11.85354,-30.62292 12.55715,-29.68838 0.0776,0.10304 0.37917,0.22742 0.67021,0.27641 0.29105,0.049 0.77497,0.31688 1.0754,0.59531 0.30041,0.27843 0.68144,0.50625 0.84675,0.50625 0.16528,0 0.39574,0.15121 0.5121,0.33602 0.11636,0.18481 1.06029,1.08223 2.09759,1.99426 7.87329,6.92243 22.26606,26.1279 30.52397,40.73065 1.41812,2.5077 1.96102,2.91887 2.56884,1.94556 0.17238,-0.27601 0.90295,-1.56355 1.62349,-2.86121 6.73899,-12.1366 21.20111,-31.65021 28.37757,-38.28959 3.64492,-3.37215 4.10778,-3.77054 5.03364,-4.33275 0.52652,-0.31971 1.14784,-0.58128 1.38075,-0.58128 0.2848,0 0.37376,-0.15164 0.2716,-0.46302 -0.0835,-0.25466 0.098,-0.10583 0.40344,0.33073 0.30543,0.43656 0.55612,0.87891 0.55708,0.983 0,0.10408 0.35068,0.73946 0.77716,1.41193 1.92833,3.04069 11.19367,26.43908 12.30508,31.07486 0.0523,0.21828 0.69906,2.32529 1.43716,4.68224 2.0533,6.55659 4.82121,16.67648 6.39027,23.3636 3.0261,12.89699 4.2612,19.34525 6.36006,33.2052 1.24253,8.2052 1.98069,18.89822 1.33225,19.29898 -0.32443,0.20052 -0.40063,1.20628 -0.0914,1.20613 0.10914,-5e-5 0.1864,0.83351 0.17169,1.85237 -0.0477,3.29729 0.69236,2.97958 2.61128,-1.12116 4.87362,-10.41476 13.33926,-15.77552 16.58429,-10.50173 2.22084,3.60932 -0.20563,13.21925 -5.31344,21.04361 -0.72096,1.10439 -1.21634,1.96656 -1.1008,1.91593 0.11549,-0.0506 1.3411,-0.65673 2.72354,-1.34689 3.09666,-1.54595 5.15827,-1.94475 6.3396,-1.22634 3.73251,2.26987 -3.30117,11.05775 -14.90371,18.62066 -2.71441,1.76931 -2.82043,1.94505 -1.96062,3.24837 1.56187,2.36741 2.85544,4.56709 3.79979,6.4614 0.79717,1.59906 1.09006,1.97475 1.363,1.74824 0.19122,-0.15869 0.42416,-0.21203 0.51761,-0.11853 0.0935,0.0935 0.0311,0.17 -0.13864,0.17 -0.16979,0 -0.30869,0.15625 -0.30869,0.34723 0,0.19099 -1.00878,1.3343 -2.24171,2.5407 -2.42652,2.37425 -2.55709,2.92994 -0.95269,4.0537 2.08614,1.46119 6.46732,8.13962 5.33972,8.13962 -0.16129,0 -0.29324,0.17267 -0.29324,0.38372 0,0.21105 -0.16711,0.47894 -0.37137,0.59532 -0.20426,0.11637 -1.07646,0.86642 -1.9382,1.66679 -3.61313,3.3557 -4.48501,4.05769 -9.65486,7.77343 -3.84297,2.7621 -4.23246,2.75306 -6.92949,-0.16083 -1.91688,-2.07095 -1.91688,-2.07095 -3.88075,-0.90323 -1.08014,0.64225 -4.0177,2.09328 -6.52793,3.22451 -2.51024,1.13122 -4.5638,2.18661 -4.56346,2.3453 0,0.15869 0.60693,1.36009 1.34795,2.66978 1.82311,3.22202 2.89515,6.31614 1.65015,4.7625 -0.34115,-0.42567 -0.39304,-0.43908 -0.2654,-0.0686 0.15576,0.4522 -2.58818,2.5821 -3.3265,2.5821 -0.16016,0 -0.47916,0.15738 -0.7089,0.34974 -0.22974,0.19235 -1.1916,0.68808 -2.13749,1.10161 -0.94591,0.41353 -2.55323,1.13415 -3.57188,1.60137 -7.16367,3.28575 -7.07929,3.25279 -6.8594,2.67973 0.0875,-0.22808 -0.0599,-0.3451 -0.41648,-0.33073 -0.32874,0.0132 -0.70157,-0.24524 -0.92202,-0.63922 -0.20354,-0.3638 -0.81171,-1.43537 -1.35146,-2.38125 -0.53975,-0.94589 -1.39819,-2.4937 -1.90762,-3.43958 -0.50943,-0.94589 -0.94914,-1.75077 -0.97708,-1.78862 -0.0431,-0.0583 -0.8241,0.18424 -3.04406,0.94538 -0.21828,0.0748 -0.45643,0.14818 -0.52919,0.16298 -0.0728,0.0148 -0.26734,0.1129 -0.43241,0.218 -0.1651,0.10511 -1.05807,0.3708 -1.9844,0.59044 -2.77085,0.65697 -3.55632,1.00457 -3.45451,1.5287 0.0498,0.25644 0.20156,0.39765 0.33727,0.31379 0.46984,-0.29039 2.28187,4.66874 2.65451,7.26478 0.3048,2.1238 0.15748,2.58499 -0.97703,3.05903 -0.9439,0.39439 -12.00174,2.88376 -14.20122,3.19702 -0.69122,0.0984 -1.25677,0.28454 -1.25677,0.41354 0,0.12899 -0.3969,0.23454 -0.88196,0.23454 -0.48506,0 -0.96952,0.0876 -1.07654,0.19462 -0.27035,0.27033 -1.65658,0.31536 -1.9232,0.0625 z"
         style="fill:#e55555;fill-opacity:1;stroke-width:1.05247" />
      <path
         id="path1041-9"
         d="m -37.536431,912.04712 c -1.06464,-0.40282 -2.90181,-0.5099 -1.98437,-0.11566 0.42257,0.18158 0.32615,0.23114 -0.47864,0.24598 -0.55429,0.0102 -0.94407,-0.0845 -0.86618,-0.21055 0.0779,-0.12601 -0.31884,-0.17595 -0.88162,-0.11095 -0.56279,0.065 -1.09955,-0.005 -1.19281,-0.15617 -0.0933,-0.1509 -0.33212,-0.21199 -0.53078,-0.13575 -1.62039,0.6218 -13.222126,-3.70426 -14.373836,-5.35972 -1.458971,-2.09712 -3.107381,-2.91877 -3.107381,-1.54888 0,0.67972 -1.633119,2.4817 -2.430531,2.68184 -0.336701,0.0845 -0.61218,0.24069 -0.61218,0.34709 0,0.10638 -0.31769,0.33818 -0.70599,0.51509 -0.653029,0.29754 -0.677839,0.28756 -0.330729,-0.13314 0.34431,-0.4173 0.32616,-0.42864 -0.220052,-0.1376 -0.327419,0.17448 -0.595317,0.46818 -0.595317,0.6527 0,0.49964 -3.565462,1.56097 -5.722652,1.70345 -2.242421,0.14811 -5.04784,-0.29168 -6.24691,-0.9793 -1.184871,-0.67949 -2.511849,-1.04235 -1.524191,-0.4168 0.661461,0.41895 0.661461,0.41895 0,0.24807 -0.363799,-0.094 -0.925158,-0.33707 -1.247457,-0.5402 -0.322303,-0.20313 -0.710552,-0.36933 -0.862783,-0.36933 -0.800579,0 -2.79227,-1.28761 -4.509648,-2.91545 -1.60211,-1.51858 -2.004751,-1.78073 -2.325812,-1.51427 -2.19342,1.82037 -21.47853,-11.7515 -23.6392,-16.63606 -1.14626,-2.59132 1.04675,-6.85659 4.67981,-9.10194 1.17651,-0.72712 1.1625,-0.80137 -0.33918,-1.79849 -5.28748,-3.51092 -6.51013,-8.77531 -2.83903,-12.22413 0.82314,-0.7733 0.8223,-1.06972 -0.005,-1.84716 -0.3638,-0.34177 -0.66146,-0.83878 -0.66146,-1.10445 0,-0.26568 -0.12609,-0.48305 -0.2802,-0.48305 -0.1541,0 -0.2103,-0.11309 -0.12488,-0.25131 0.0854,-0.13822 -0.0895,-0.38231 -0.38867,-0.54244 -0.29919,-0.16012 -0.47357,-0.40506 -0.38751,-0.54431 0.0861,-0.13925 -0.0297,-0.3246 -0.25718,-0.41191 -0.2275,-0.0873 -0.41364,-0.32458 -0.41364,-0.52729 0,-0.20271 -0.11664,-0.36857 -0.25921,-0.36857 -0.28699,0 -1.38245,-1.97545 -1.5117,-2.72607 -0.0452,-0.26241 -0.26053,-0.82204 -0.47854,-1.24363 -1.59805,-3.09029 1.2477,-5.48945 5.4906,-4.62896 1.15341,0.23393 1.36265,-0.24448 0.46302,-1.05863 -0.29104,-0.26339 -0.52917,-0.68398 -0.52917,-0.93465 0,-0.25068 -0.17728,-0.6029 -0.39396,-0.78273 -0.21668,-0.17983 -0.32872,-0.43253 -0.24897,-0.56156 0.0797,-0.12903 0.0189,-0.2346 -0.1352,-0.2346 -0.15411,0 -0.2802,-0.15795 -0.2802,-0.351 0,-0.19305 -0.54627,-1.35391 -1.21394,-2.57969 -0.66767,-1.22578 -1.23656,-2.34775 -1.26421,-2.49327 -0.0276,-0.14552 -0.12765,-0.38818 -0.22223,-0.53924 -0.2558,-0.40858 -1.12012,-3.0845 -1.96232,-6.07534 -1.6585,-5.88969 -0.63476,-11.77396 2.04843,-11.77396 1.10153,0 2.5769,0.58326 2.43181,0.96137 -0.0925,0.24115 0.0641,0.36154 0.4704,0.36154 0.33503,0 0.93341,0.31067 1.32973,0.69037 0.76077,0.72886 1.29274,0.66501 1.29274,-0.15517 0,-0.75256 -0.29079,-1.34397 -0.57458,-1.16858 -0.14001,0.0865 -0.22782,-0.003 -0.19513,-0.19996 0.0327,-0.1965 -0.0144,-0.53587 -0.10464,-0.75416 -1.21353,-2.93551 -2.1598,-8.10887 -2.1415,-11.70781 0.004,-0.69122 -0.0606,-1.25655 -0.14252,-1.25629 -0.34811,10e-4 0.0577,-3.4018 0.52816,-4.42937 0.28245,-0.61687 0.51355,-1.23785 0.51355,-1.37994 0,-0.54644 1.57905,-1.83852 2.4455,-2.00107 1.60377,-0.30087 2.85685,0.4608 4.46939,2.71667 1.59844,2.23613 1.88874,1.64991 1.88234,-3.8011 -0.004,-3.05416 0.10513,-4.65185 0.36855,-5.41643 0.24301,-0.70532 0.42384,-2.81028 0.51725,-6.02071 0.17937,-6.16495 0.30962,-7.89878 0.639718,-8.51558 0.143322,-0.26779 0.26058,-0.89009 0.26058,-1.38289 0,-2.4735 2.567861,-13.46033 3.849172,-16.46901 0.247891,-0.58208 0.681969,-1.88975 0.964621,-2.90593 0.282649,-1.01619 0.631147,-1.92006 0.774438,-2.00862 0.14329,-0.0886 0.310761,-0.55794 0.37216,-1.04306 0.0614,-0.48513 0.263469,-0.97841 0.449061,-1.09619 0.185579,-0.11778 0.218358,-0.21975 0.0728,-0.2266 -0.14552,-0.007 -0.0335,-0.18728 0.249,-0.40093 0.369139,-0.2792 0.40635,-0.39011 0.132299,-0.39435 -0.266509,-0.004 -0.213629,-0.1435 0.175649,-0.46302 0.569241,-0.46722 1.115182,-1.54847 0.630643,-1.24901 -0.143852,0.0889 -0.261552,0.0356 -0.261552,-0.11855 0,-0.15411 0.12609,-0.2802 0.2802,-0.2802 0.154111,0 0.20929,-0.11472 0.122642,-0.25493 -0.0867,-0.14021 0.103298,-0.51579 0.422129,-0.83462 0.318829,-0.31883 0.610971,-0.86464 0.649201,-1.21291 0.0382,-0.34827 0.187798,-0.77637 0.332388,-0.95132 0.144581,-0.17495 0.669221,-1.092 1.16586,-2.03788 1.366131,-2.60189 3.410942,-4.49792 4.850841,-4.49792 0.39287,0 1.165209,-0.13509 1.71631,-0.30021 1.29853,-0.38905 2.115439,0.20589 3.228628,2.35133 0.433981,0.83641 0.867,1.60703 0.962272,1.71249 0.0953,0.10545 0.824521,-1.08517 1.62057,-2.64584 0.796049,-1.56066 1.948151,-3.70077 2.56023,-4.75579 0.612079,-1.05503 1.029401,-1.92185 0.92737,-1.92628 -0.102032,-0.004 0.02529,-0.1308 0.28307,-0.28084 0.25772,-0.15004 0.39952,-0.38454 0.315121,-0.52112 -0.0844,-0.13658 -0.0274,-0.24832 0.126719,-0.24832 0.15411,0 0.280199,-0.16352 0.280199,-0.36337 0,-0.19986 0.56555,-1.28018 1.256771,-2.40073 1.970101,-3.19374 2.10439,-3.38959 5.63463,-8.21724 0.66157,-0.90471 1.792669,-2.33358 2.51354,-3.17527 0.720881,-0.84169 1.82812,-2.1382 2.46054,-2.88114 0.632431,-0.74294 1.757331,-1.91635 2.499791,-2.60757 0.74245,-0.69122 1.246058,-1.25677 1.119119,-1.25677 -0.126939,0 0.0408,-0.28905 0.37265,-0.64235 0.331901,-0.35329 0.75751,-0.58322 0.9458,-0.51097 0.209479,0.0804 0.326909,-0.0554 0.302559,-0.34984 -0.02191,-0.26467 0.109051,-0.45145 0.290952,-0.41507 0.181898,0.0364 0.330729,-0.11618 0.330729,-0.33903 0,-0.22285 0.178599,-0.47371 0.39688,-0.55747 0.81143,-0.31138 0.346909,-0.55688 -1.389059,-0.73412 -4.903232,-0.50061 -10.032932,-3.46282 -10.307241,-5.95204 -0.0561,-0.50886 -0.205629,-1.05012 -0.33234,-1.2028 -0.12672,-0.15268 -0.23181,-0.81314 -0.233551,-1.46768 -0.0021,-0.65455 -0.139679,-2.02352 -0.30653,-3.04217 -0.166849,-1.01865 -0.353798,-2.4474 -0.415438,-3.175 -0.0616,-0.7276 -0.30307,-2.78271 -0.536501,-4.5669 -0.233421,-1.7842 -0.35782,-3.4175 -0.27645,-3.62955 0.0814,-0.21206 0.0258,-0.46103 -0.123399,-0.55327 -0.149252,-0.0922 -0.240681,-0.66645 -0.2032,-1.27603 0.0375,-0.60958 -0.005,-1.22635 -0.0939,-1.37061 -0.0892,-0.14425 -0.226179,-0.91331 -0.304511,-1.709 -0.0783,-0.7957 -0.27577,-2.33969 -0.438759,-3.4311 -0.162991,-1.09141 -0.342691,-3.82984 -0.399341,-6.08542 -0.0566,-2.25557 -0.160528,-4.33916 -0.230859,-4.63021 -0.0923,-0.38212 0.0673,-0.62106 0.574479,-0.85989 1.183362,-0.55723 1.682591,-0.38452 3.083912,1.0669 0.742169,0.7687 1.934249,1.87002 2.649079,2.44739 0.71482,0.57738 1.858971,1.58555 2.54254,2.2404 0.683581,0.65484 1.80144,1.65449 2.484131,2.22143 0.788689,0.65499 1.187,1.17217 1.09247,1.41852 -0.10319,0.2689 -0.0232,0.33951 0.261109,0.23043 0.234799,-0.0901 0.47421,0.0103 0.56047,0.23512 0.0828,0.21583 0.323469,0.39241 0.53477,0.39241 0.211299,0 0.3106,0.11907 0.22066,0.26459 -0.0899,0.14552 -0.004,0.26458 0.190561,0.26458 0.194739,0 0.529188,0.24974 0.74322,0.55497 0.214019,0.30523 0.664189,0.6622 1.000368,0.79325 0.366022,0.14269 0.535371,0.36103 0.42214,0.54425 -0.117668,0.1904 -0.073,0.23422 0.11824,0.11602 0.172029,-0.10632 0.377209,-0.008 0.466059,0.2237 0.0873,0.2275 0.33733,0.41364 0.55561,0.41364 0.24998,0 0.33855,0.15199 0.2393,0.41062 -0.0931,0.24255 -0.047,0.34229 0.11254,0.24368 0.14856,-0.0918 0.80759,0.37825 1.4645,1.04459 1.5954,1.61829 1.49662,1.68048 3.11874,-1.96347 0.16195,-0.3638 0.62311,-1.23224 1.02481,-1.92987 0.40171,-0.69763 0.73037,-1.5013 0.73037,-1.78594 0,-0.28464 0.17156,-0.51752 0.38126,-0.51752 0.20969,0 0.454,-0.1177 0.54291,-0.26156 0.0927,-0.14998 -0.0135,-0.19433 -0.24897,-0.10398 -0.22584,0.0867 -0.41062,0.0258 -0.41062,-0.13532 0,-0.16109 0.12609,-0.29289 0.2802,-0.29289 0.15411,0 0.19411,-0.1393 0.0889,-0.30955 -0.1294,-0.20937 -0.0459,-0.25376 0.25789,-0.13717 0.33537,0.12869 0.64809,-0.14124 1.23403,-1.06517 0.86926,-1.37069 0.97721,-1.79355 0.40143,-1.5726 -0.25575,0.0981 -0.33461,0.02 -0.23686,-0.23476 0.0806,-0.21003 0.25176,-0.31685 0.38037,-0.23737 0.1286,0.0795 0.16642,-0.0311 0.0841,-0.24581 -0.0898,-0.23405 0.0785,-0.5125 0.42042,-0.69549 0.32994,-0.17658 0.50932,-0.46385 0.4257,-0.68175 -0.0795,-0.20712 -0.0222,-0.37658 0.12739,-0.37658 0.14954,0 0.19831,-0.11907 0.10837,-0.26459 -0.0899,-0.14552 -0.0304,-0.26458 0.13229,-0.26458 0.1627,0 0.23338,-0.10103 0.15706,-0.22451 -0.0763,-0.12349 0.0655,-0.45281 0.31511,-0.73184 0.24963,-0.27903 0.96434,-1.51745 1.58824,-2.75205 1.31056,-2.59338 3.60009,-5.90965 4.16614,-6.03444 0.21342,-0.0471 0.40161,-0.16611 0.4182,-0.26458 0.0166,-0.0985 0.0689,-0.50489 0.11618,-0.90316 0.10385,-0.8744 1.66137,-2.53789 2.28475,-2.4402 0.65853,0.1032 2.03377,1.6102 2.22852,2.44205 0.093,0.39725 0.37931,0.90087 0.63624,1.11915 0.25692,0.21828 1.03005,1.23031 1.71804,2.24895 0.68801,1.01865 1.3261,1.91162 1.41799,1.98438 0.0919,0.0728 0.5838,1.02526 1.09312,2.11667 0.50932,1.0914 1.13028,2.21076 1.37991,2.48746 0.24963,0.2767 0.39143,0.60412 0.31512,0.72761 -0.0763,0.12348 -0.006,0.22451 0.15705,0.22451 0.1627,0 0.22223,0.11906 0.13229,0.26458 -0.0899,0.14552 -0.0304,0.26459 0.1323,0.26459 0.16269,0 0.22661,0.11196 0.14203,0.24881 -0.0846,0.13684 0.0997,0.48491 0.40941,0.77348 0.33429,0.31145 0.48135,0.65705 0.36186,0.85041 -0.12203,0.19744 -0.0919,0.25812 0.0764,0.15407 0.15276,-0.0944 0.34369,2e-4 0.42428,0.21023 0.0981,0.25572 0.0189,0.3329 -0.23986,0.2336 -0.43562,-0.16716 -0.28721,0.4532 0.32502,1.35858 0.19411,0.28704 0.35292,0.72079 0.35292,0.96388 0,0.24309 0.18638,0.51351 0.41417,0.60092 0.31795,0.12201 0.37528,0.0364 0.24676,-0.36856 -0.0996,-0.31384 -0.0467,-0.52751 0.1306,-0.52751 0.16392,0 0.22445,0.11907 0.13451,0.26459 -0.0899,0.14552 -0.0304,0.26458 0.13229,0.26458 0.1627,0 0.22223,0.11906 0.13229,0.26458 -0.0899,0.14552 -0.0374,0.26459 0.11668,0.26459 0.15411,0 0.2802,0.1318 0.2802,0.29289 0,0.16109 -0.1786,0.22435 -0.39688,0.14059 -0.22716,-0.0872 -0.39687,-0.005 -0.39687,0.19114 0,0.18889 0.26789,0.33398 0.59531,0.32243 0.44549,-0.0157 0.57327,0.10628 0.50775,0.48478 -0.12734,0.73548 0.2028,2.27233 0.48812,2.27233 0.13436,0 0.17583,-0.20836 0.0922,-0.46302 -0.0837,-0.25466 0.0986,-0.0732 0.40517,0.40327 0.30653,0.47646 0.55732,1.02217 0.55732,1.21268 0,0.19051 0.0893,0.43568 0.19844,0.54482 0.10914,0.10914 0.20429,0.27781 0.21144,0.37482 0.0402,0.5452 0.50234,1.48548 0.95022,1.93337 0.55839,0.55838 0.55,0.56344 3.02545,-1.82312 0.33961,-0.32743 0.66223,-0.59532 0.71692,-0.59532 0.0547,0 0.74472,-0.59458 1.53339,-1.32129 0.78866,-0.72671 1.5897895,-1.32202 1.7802795,-1.32291 0.19049,-8e-4 0.27276,-0.12069 0.18282,-0.26621 -0.0899,-0.14552 -0.0552,-0.26459 0.0771,-0.26459 0.13237,0 1.06054,-0.78822 2.06261,-1.7516 1.00207,-0.96338 2.89032,-2.66002 4.19611,-3.77031 1.30579,-1.11029 3.06277003,-2.70332 3.90440003,-3.54007 1.65382997,-1.64423 1.73161997,-1.67538 3.02017997,-1.20943 0.83772,0.30292 1.0724,1.72716 0.3332,2.02205 -0.11721,0.0468 -0.0762,0.30416 0.091,0.572 0.23002,0.36832 0.22131,1.3792 -0.0357,4.14832 -0.31992,3.44659 -0.42797,4.80683 -0.51526,6.48671 -0.0203,0.38979 -0.21633,0.88821 -0.43573,1.10761 -0.2473,0.2473 -0.29758,0.46153 -0.13229,0.56368 0.38641,0.23881 0.3276,1.71425 -0.0745,1.86854 -0.40505,0.15543 -0.53802,1.17542 -0.15323,1.17542 0.1466,0 0.22567,0.26789 0.17571,0.59531 -0.05,0.32742 -0.21699,0.57216 -0.37118,0.54387 -0.15419,-0.0283 -0.28035,0.12053 -0.28035,0.33073 0,0.2102 0.12898,0.384 0.28663,0.38622 0.15765,0.002 0.10804,0.11947 -0.11024,0.26054 -0.31466,0.20334 -0.32119,0.25732 -0.0315,0.26053 0.27936,0.003 0.32054,0.23759 0.17499,0.99624 -0.10469,0.5457 -0.17969,1.27751 -0.16666,1.62624 0.013,0.34873 -0.10483,0.78891 -0.26192,0.97818 -0.15707,0.18927 -0.25487,0.61832 -0.21733,0.95344 0.0375,0.33513 -0.0195,0.98429 -0.12669,1.44258 -0.10722,0.45829 -0.23034,1.42389 -0.27358,2.14579 -0.0433,0.7219 -0.14882,1.42611 -0.2346,1.56492 -0.0858,0.13881 -0.21866,0.95914 -0.29526,1.82295 -0.22641,2.55316 -0.43833997,4.69564 -0.54128997,5.47221 -0.31242,2.3567 -8.08029003,6.20406 -11.50980953,5.70071 -0.78219,-0.11481 -0.87333,0.3993 -0.1219,0.68765 0.20702,0.0794 0.37641,0.36786 0.37641,0.64091 0,0.27306 0.23813,0.71196 0.52917,0.97535 0.3763895,0.34063 0.5291595,0.37735 0.5291595,0.12718 0,-0.22233 0.23903,-0.12716 0.64976,0.2587 0.35736,0.33573 0.62525,0.69686 0.59531,0.80252 -0.0299,0.10566 0.49909,0.71494 1.17561,1.35394 0.67653,0.63901 1.74809,1.76969 2.38125,2.51263 0.63316,0.74294 1.74651,2.04402 2.47412,2.89131 0.7276,0.84728 2.10890003,2.64002 3.06956003,3.98387 0.96065997,1.34385 2.00915997,2.7812 2.33000997,3.19411 1.56651,2.016 3.87619,5.88992 3.78181,6.34304 -0.0344,0.16534 0.12562,0.37286 0.3557,0.46115 0.23008,0.0883 0.34371,0.28127 0.2525,0.42885 -0.0912,0.14758 0.01,0.33563 0.22394,0.41789 0.21437,0.0823 0.46153,0.43552 0.54925,0.78502 0.0877,0.3495 0.45565,1.07188 0.81763,1.60528 0.36198,0.5334 0.65814,1.1318 0.65814,1.32977 0,0.19798 0.11906,0.35996 0.2645805,0.35996 0.14552,0 0.26458,0.11841 0.26458,0.26315 0,0.47435 2.4518,5.55768 2.68059,5.55768 0.12275,0 0.63651,-0.80367 1.1417,-1.78594 1.0708,-2.08202 1.96076,-2.84595 3.00698,-2.58113 0.39125,0.099 1.32324,0.28031 2.07108,0.40284 1.73713,0.2846 3.42828,1.8529 4.76411,4.41803 0.51418,0.98734 1.05316,1.9383 1.19774,2.11325 0.14458,0.17495 0.29416,0.60305 0.33239,0.95132 0.0382,0.34827 0.33037,0.89408 0.64919,1.21291 0.31883,0.31883 0.50879,0.69441 0.42214,0.83462 -0.0867,0.14021 -0.0315,0.25493 0.12264,0.25493 0.1541,0 0.28019,0.12609 0.28019,0.2802 0,0.15411 -0.11428,0.20956 -0.25397,0.12323 -0.15057,-0.093 -0.14007,0.16979 0.0258,0.64553 0.15386,0.44137 0.37898,0.74117 0.50028,0.6662 0.12129,-0.075 0.29531,-0.0153 0.38671,0.13261 0.0914,0.14789 0.0174,0.2689 -0.16458,0.2689 -0.18192,0 -0.0996,0.17481 0.18283,0.38846 0.28247,0.21365 0.39452,0.39407 0.249,0.40093 -0.14552,0.007 -0.11274,0.10882 0.0728,0.2266 0.18559,0.11778 0.38766,0.61106 0.44906,1.09619 0.0614,0.48512 0.21991,0.95248 0.35226,1.03857 0.13235,0.0861 0.60272,1.28764 1.04527,2.67008 0.44255,1.38245 1.11929,3.34698 1.50385,4.36563 0.73564,1.94859 2.64977,10.77749 3.06888,14.15521 0.13543,1.0914 0.36807,2.75828 0.51699,3.70416 0.24044,1.52719 0.55715,7.76939 0.52538,10.3551 -0.007,0.52932 0.16735,1.48182 0.38635,2.11667 0.30324,0.87904 0.37814,2.1006 0.31412,5.12302 -0.11679,5.51378 0.34557,6.36804 2.06051,3.80702 1.39712,-2.0864 3.20503,-3.05554 4.6033,-2.46761 0.46916,0.19727 0.92663,0.33379 1.01659,0.30338 0.09,-0.0304 0.26549,0.22025 0.39007,0.55702 0.12458,0.33677 0.34522,0.53894 0.4903,0.44928 0.15791,-0.0976 0.19386,0.0192 0.0896,0.29099 -0.10964,0.28571 -0.0705,0.38994 0.10545,0.28117 0.15382,-0.0951 0.27436,-0.0253 0.26787,0.15503 -0.0291,0.80896 0.0891,1.27428 0.29203,1.14889 0.4276,-0.26427 0.59808,5.86151 0.24225,8.70399 -0.61985,4.95139 -1.40407,8.17837 -2.22254,9.14549 -1.11954,1.32285 -0.44901,3.19165 0.70458,1.96371 0.34007,-0.36199 0.82976,-0.65816 1.0882,-0.65816 0.25845,0 0.56737,-0.17417 0.6865,-0.38704 0.11913,-0.21287 0.71877,-0.56422 1.33252,-0.78076 1.77768,-0.6272 3.29563,0.63947 3.55428,2.9659 0.10027,0.90191 0.23558,1.7295 0.30067,1.8391 0.27848,0.46882 -0.38419,5.73779 -0.86733,6.89631 -0.28451,0.68225 -0.57431,1.59764 -0.64398,2.0342 -0.22527,1.41147 -3.51011,9.30094 -4.13105,9.92188 -0.30111,0.30111 -0.79375,1.34081 -0.79375,1.67519 0,0.1977 -0.23812,0.57496 -0.52916,0.83835 -0.90071,0.81512 -0.69069,1.29332 0.46302,1.0543 4.14975,-0.85975 7.07624,1.56699 5.51965,4.57709 -0.23399,0.4525 -0.46242,1.03742 -0.5076,1.29983 -0.12568,0.72992 -1.12282,2.51646 -1.81401,3.25013 -0.3401,0.36099 -0.58978,0.74439 -0.55484,0.85199 0.0349,0.10761 -0.17677,0.32424 -0.47043,0.48141 -0.29367,0.15716 -0.46406,0.39884 -0.37863,0.53706 0.0854,0.13822 0.0292,0.25131 -0.12488,0.25131 -0.15411,0 -0.2802,0.21737 -0.2802,0.48305 0,0.26567 -0.29766,0.76268 -0.66146,1.10445 -0.82563,0.77565 -0.8224,1.02923 0.0233,1.83178 3.64238,3.45635 2.5777,8.34774 -2.65254,12.1864 -1.57086,1.15291 -1.57086,1.15291 -0.92605,1.55382 1.38076,0.85846 4.13915,3.92316 4.86073,5.40049 1.2098,2.47691 0.75506,4.00871 -2.08324,7.01746 -3.09752,3.28353 -11.71765,9.73286 -15.49412,11.59223 -1.09141,0.53736 -2.32669,1.21632 -2.74507,1.50879 -1.01387,0.70876 -2.73507,1.02859 -2.92146,0.54288 -0.227,-0.59155 -0.54332,-0.42712 -2.09769,1.09044 -1.94537,1.89932 -3.44688,2.97013 -4.4842,3.19796 -0.46238,0.10156 -1.08057,0.33523 -1.37374,0.51928 -0.29318,0.18404 -0.83071,0.41152 -1.19451,0.5055 -0.66146,0.17088 -0.66146,0.17088 0,-0.25531 0.41653,-0.26837 0.47739,-0.36866 0.16437,-0.27085 -0.27339,0.0854 -1.02743,0.28888 -1.67562,0.4521 -0.83305,0.20977 -1.07515,0.36584 -0.82583,0.53244 0.2212,0.14779 0.0667,0.16896 -0.41436,0.0568 -0.56947,-0.13283 -0.71554,-0.0956 -0.56706,0.1447 0.15175,0.24555 -0.11002,0.28628 -1.0850205,0.16878 -0.95796,-0.11543 -1.15034,-0.0871 -0.75585,0.11144 0.37999,0.19121 -0.17942,0.23832 -1.98438,0.16713 -2.7465,-0.10834 -6.34999997,-1.04553 -6.34999997,-1.65151 0,-0.19062 -0.26789,-0.48931 -0.59531,-0.66379 -0.54621,-0.29104 -0.56436,-0.2797 -0.22006,0.13761 0.34711,0.42069 0.32231,0.43067 -0.33073,0.13313 -0.38828,-0.17692 -0.70597003,-0.40871 -0.70597003,-0.5151 0,-0.10639 -0.29346,-0.26708 -0.65212,-0.3571 -0.41349,-0.10378 -0.60047,-0.29827 -0.51098,-0.53149 0.0911,-0.23749 -0.0293,-0.35372 -0.34007,-0.32803 -0.27329,0.0226 -0.4498,-0.11162 -0.40851,-0.31061 0.04,-0.19272 -0.0281,-0.28812 -0.15124,-0.212 -0.32211,0.19908 -0.97979,-0.66663 -0.97979,-1.28969 0,-1.3718 -1.64733,-0.54874 -3.11183,1.55478 -1.24347,1.78603 -12.0615495,5.7981 -14.3051695,5.30532 -0.57815,-0.12698 -0.72194,-0.0869 -0.5701,0.15875 0.15648,0.2532 -0.0939,0.28753 -1.09137,0.14967 -0.91961,-0.12709 -1.17952,-0.10029 -0.89757,0.0925 0.306,0.20929 0.18181,0.27237 -0.5424,0.2755 -0.5166,0.002 -1.05238,-0.10586 -1.19062,-0.24019 -0.13825,-0.13432 -0.60522,-0.17492 -1.03771,-0.0902 -0.70212,0.13751 -0.73047,0.17824 -0.26459,0.38019 0.56533,0.24505 -0.056,0.17618 -1.4626,-0.16211 -0.54358,-0.13073 -0.56716,-0.1169 -0.13229,0.0776 0.61721,0.27606 -6.23399,0.22026 -7.27604,-0.0592 -0.54958,-0.14742 -0.57196,-0.13491 -0.1323,0.074 0.86522,0.41108 -0.30379,0.31074 -1.4552,-0.1249 z"
         style="fill:#7ab5e0;fill-opacity:1;stroke-width:1.05247" />
      <path
         id="path1017-8"
         d="m -30.921841,1160.4085 c -0.86115,-0.2195 -3.35416,-1.5331 -3.56877,-1.8803 -0.0917,-0.1483 -0.38922,-0.2696 -0.66128,-0.2696 -0.27206,0 -0.6925,-0.1979 -0.93431,-0.4397 -0.59752,-0.5975 -2.58332,-1.9308 -2.8846,-1.9368 -0.13406,0 -0.43172,-0.1669 -0.66146,-0.365 -0.22974,-0.1981 -1.31068,-0.8185 -2.40208,-1.3787 -1.09141,-0.5602 -2.57969,-1.4547 -3.30729,-1.9877 -1.32731,-0.9725 -3.47305,-2.2229 -10.847917,-6.3216 -2.18282,-1.2131 -6.647661,-3.7244 -9.92188,-5.5807 -3.274221,-1.8562 -6.488901,-3.6605 -7.14375,-4.0094 -1.723332,-0.9183 -2.495531,-1.3737 -2.645831,-1.5604 -0.0728,-0.09 -0.846669,-0.5283 -1.719789,-0.9732 -0.87313,-0.4449 -1.905251,-1.1449 -2.293612,-1.5555 -0.388358,-0.4106 -1.485498,-1.5204 -2.438088,-2.4663 -4.08401,-4.0553 -4.35126,-7.1448 -0.938252,-10.8462 1.521931,-1.6505 1.607841,-1.4251 -1.311629,-3.4413 -0.7375,-0.5094 -1.343589,-1.0876 -1.346859,-1.2851 -0.008,-0.4922 -0.174551,-0.4108 -4.743111,2.3197 -2.2132,1.3227 -4.225629,2.4018 -4.472059,2.3979 -0.246441,0 0.408299,-0.5006 1.454959,-1.104 1.04666,-0.6033 1.88009,-1.2252 1.852081,-1.382 -0.028,-0.1568 0.157419,-0.2685 0.412088,-0.2483 0.254662,0.02 0.463021,-0.1159 0.463021,-0.3025 0,-0.1865 0.19543,-0.4141 0.43429,-0.5058 0.319331,-0.1225 0.371861,-0.074 0.19844,0.1827 -0.12972,0.192 0.0021,0.092 0.293309,-0.2215 0.291042,-0.3139 1.084882,-0.8906 1.764081,-1.2816 1.234921,-0.7108 1.234921,-0.7108 0.0843,-1.8948 -2.15106,-2.2133 -4.155831,-5.6706 -3.288159,-5.6706 0.185549,0 0.262728,-0.075 0.171518,-0.1658 -0.247491,-0.2475 0.390189,-1.3483 2.177611,-3.759 1.896258,-2.5574 1.919068,-2.6306 0.55113,-1.767 -0.579192,0.3656 -1.104321,0.6648 -1.16694,0.6648 -0.0626,0 -0.92819,0.457 -1.923491,1.0156 -7.697039,4.3202 -11.73266,6.1894 -11.73099,5.4336 10e-4,-0.5097 2.64825,-2.0542 2.96967,-1.7328 0.23782,0.2378 0.2052,0.3106 -0.13914,0.3106 -0.24738,0 -0.44979,0.1165 -0.44979,0.2589 0,0.1567 0.2874,0.1368 0.72761,-0.05 0.947331,-0.4025 1.35017,-0.7473 0.66328,-0.5677 -0.96652,0.2528 -0.88347,-0.3693 0.13086,-0.9803 2.13283,-1.2846 7.501141,-3.9874 7.753149,-3.9034 0.146431,0.049 -1.353939,0.921 -3.334139,1.9382 -3.244749,1.6667 -5.01931,2.7623 -3.113339,1.9221 2.95483,-1.3026 10.16127,-5.2516 10.315149,-5.6527 0.0742,-0.1934 -0.21604,-0.8625 -0.64503,-1.4869 -0.42899,-0.6244 -1.266831,-1.9786 -1.861881,-3.0094 -0.595598,-1.0317 -1.263468,-1.8741 -1.485858,-1.8741 -0.222192,0 -1.091861,-0.1916 -1.932612,-0.4259 -1.259379,-0.3508 -6.506669,-1.4303 -8.010939,-1.648 -0.21828,-0.032 -0.57547,-0.1299 -0.79375,-0.2184 -0.21828,-0.088 -0.75406,-0.2143 -1.19062,-0.2795 -0.43656,-0.065 -0.79375,-0.1437 -0.79375,-0.1742 0,-0.03 -0.23813,-0.085 -0.52917,-0.122 -0.29104,-0.037 -1.63044,-0.4451 -2.97644,-0.908 -1.346,-0.4628 -2.58478,-0.7565 -2.75286,-0.6526 -0.18937,0.117 -0.23379,0.073 -0.1168,-0.1166 0.10733,-0.1737 0.0336,-0.3055 -0.17078,-0.3055 -0.19777,0 -0.50125,-0.1416 -0.6744,-0.3148 -0.17315,-0.1731 -0.48286,-0.3395 -0.68823,-0.3696 -0.20538,-0.03 -0.7126,-0.2983 -1.12716,-0.5958 -0.41456,-0.2975 -1.14235,-0.5973 -1.61731,-0.6661 -0.47496,-0.069 -1.41811,-0.4927 -2.09588,-0.9416 -0.67778,-0.4489 -1.33334,-0.8163 -1.4568,-0.8163 -0.12346,0 -0.696,-0.2976 -1.2723,-0.6614 -0.5763,-0.3638 -1.22877,-0.6615 -1.44995,-0.6615 -0.22117,0 -0.40213,-0.1216 -0.40213,-0.2702 0,-0.1486 -0.32742,-0.4141 -0.7276,-0.5899 -0.40019,-0.1759 -0.78714,-0.3823 -0.8599,-0.4588 -0.0728,-0.077 -0.84667,-0.4957 -1.71979,-0.9314 -0.87313,-0.4358 -1.68272,-0.9412 -1.79909,-1.1231 -0.11637,-0.1819 -0.38426,-0.3307 -0.59531,-0.3307 -0.21105,0 -0.38373,-0.1111 -0.38373,-0.2468 0,-0.1357 -0.21714,-0.3157 -0.48252,-0.3999 -0.26539,-0.084 -0.71188,-0.3632 -0.99219,-0.62 -0.28032,-0.2567 -1.56936,-1.2289 -2.86454,-2.1604 -1.29518,-0.9314 -2.8639,-2.1785 -3.48604,-2.7712 -2.84291,-2.7087 -3.84188,-3.5913 -4.06469,-3.5913 -0.32296,0 -1.71375,-1.4422 -1.82374,-1.8911 -0.0482,-0.1968 -0.46494,-0.7312 -0.92604,-1.1873 -0.92773,-0.9179 -2.20144,-2.5444 -2.08977,-2.6685 0.0393,-0.044 -0.10476,-0.4203 -0.32018,-0.8369 -0.21543,-0.4166 -0.30714,-0.842 -0.2038,-0.9453 0.10334,-0.1034 0.0688,-0.1501 -0.0767,-0.1038 -0.41917,0.1334 -1.71979,-1.1427 -1.71979,-1.6873 0,-0.2714 -0.32201,-0.8155 -0.71558,-1.209 -0.39357,-0.3936 -0.71015,-0.7752 -0.70352,-0.8479 0.038,-0.4168 -0.26993,-1.0583 -0.50794,-1.0583 -0.1528,0 -0.19948,-0.078 -0.10373,-0.1741 0.0958,-0.096 0.0263,-0.3513 -0.15434,-0.568 -0.18064,-0.2166 -0.46347,-0.9419 -0.62852,-1.6118 -0.16505,-0.6699 -0.60634,-2.0641 -0.98065,-3.0982 -2.04856,-5.6598 -2.74908,-17.7712 -1.64348,-28.4146 0.41753,-4.0195 0.64672,-5.8553 0.89185,-7.1438 0.15227,-0.8003 0.41447,-2.4672 0.58268,-3.7041 0.1682,-1.2369 0.65249,-3.3435 1.07619,-4.6812 0.42371,-1.3376 0.77037,-2.6533 0.77037,-2.9236 0,-0.2703 0.10324,-0.6046 0.22941,-0.7428 0.12617,-0.1383 0.54794,-1.1898 0.93727,-2.3368 0.71057,-2.09331 1.39585,-3.62112 1.73485,-3.86772 0.10003,-0.0728 0.3888,-0.77361 0.64172,-1.55741 0.25292,-0.7838 0.63071,-1.59602 0.83955,-1.80483 0.20884,-0.20886 0.3797,-0.66038 0.3797,-1.00335 0,-0.34304 0.20836,-0.83201 0.46302,-1.0867 0.25467,-0.25466 0.43326,-0.50131 0.39688,-0.54809 -0.30393,-0.39073 0.0969,-1.45047 0.86505,-2.28682 0.51077,-0.55612 0.86036,-1.12164 0.77687,-1.25677 -0.0835,-0.13509 -0.0187,-0.24558 0.14402,-0.24558 0.16269,0 0.23759,-0.0942 0.16642,-0.20937 -0.0712,-0.11514 0.22115,-0.85929 0.64957,-1.65364 0.42843,-0.79436 0.96925,-1.85944 1.20182,-2.36683 0.52879,-1.15359 3.02557,-4.82426 3.47786,-5.11302 0.18496,-0.11809 0.27226,-0.3183 0.19401,-0.44487 -0.0783,-0.12663 0.0971,-0.39788 0.38962,-0.6028 0.29255,-0.20492 0.4533,-0.45117 0.35721,-0.5473 -0.0961,-0.0961 -0.0288,-0.17467 0.14959,-0.17467 0.17836,0 0.25071,-0.11909 0.16077,-0.26461 -0.0899,-0.14552 -0.0513,-0.26459 0.0858,-0.26459 0.13714,0 0.31474,-0.25011 0.39468,-0.55575 0.0925,-0.35375 0.26288,-0.48319 0.46862,-0.35603 0.20664,0.12772 0.25516,0.0896 0.13448,-0.10567 -0.10383,-0.16801 -0.0557,-0.30546 0.10703,-0.30546 0.16269,0 0.22223,-0.11907 0.13229,-0.26459 -0.0899,-0.14552 -0.0176,-0.26455 0.16077,-0.26455 0.17837,0 0.25059,-0.0737 0.16051,-0.16381 -0.0901,-0.0901 -0.0206,-0.31795 0.15434,-0.5063 0.17497,-0.18841 0.61578,-0.73377 0.97959,-1.21201 0.3638,-0.47818 1.01396,-1.23258 1.4448,-1.67648 0.43084,-0.44389 0.78493,-0.86659 0.78687,-0.93935 0.005,-0.17377 0.86682,-1.1912 1.91787,-2.26308 0.46325,-0.47244 0.77083,-0.93044 0.68351,-1.01772 -0.0873,-0.0873 0.0467,-0.15875 0.29784,-0.15875 0.25112,0 0.383,-0.11909 0.29306,-0.26461 -0.0899,-0.14552 0.0221,-0.26459 0.24897,-0.26459 0.22687,0 0.38273,-0.14882 0.34635,-0.33073 -0.0364,-0.1819 0.0827,-0.30093 0.26459,-0.26455 0.1819,0.0364 0.30096,-0.0416 0.26458,-0.17325 -0.2194,-0.79396 12.58914,-11.93147 13.72165,-11.93147 0.0774,0 0.32339,-0.18274 0.54677,-0.40613 0.6503,-0.65029 3.23806,-2.3432 5.2446,-3.43107 4.76608,-2.58386 5.71126,-3.05704 7.937501,-3.97406 1.309679,-0.53946 2.697279,-1.14573 3.083528,-1.34729 0.38626,-0.20153 0.95772,-0.36645 1.26991,-0.36645 0.3122,0 0.88914,-0.16211 1.282091,-0.36023 3.386461,-1.70749 14.53255,-2.47718 20.133019,-1.39036 2.189372,0.42487 6.267432,1.98851 8.394013,3.2185 0.599299,0.34663 1.164849,0.55502 1.256768,0.4631 0.0919,-0.0919 0.167132,-0.0484 0.167132,0.0967 0,0.14509 0.519258,0.63674 1.153908,1.09251 2.81364,2.0206 6.4926,5.76496 8.24265,8.38918 0.679329,1.01861 1.462379,2.09788 1.740119,2.39828 0.27774,0.30041 0.50499,0.65458 0.50499,0.78701 0,0.13245 0.43172,0.62492 0.95937,1.09437 0.61826,0.55001 0.90329,0.99965 0.80162,1.26457 -0.18316,0.47734 1.37501,3.71166 2.34146,4.86021 0.36302,0.43143 0.66005,0.84879 0.66005,0.92745 0,0.0787 0.12743,0.47821 0.28318,0.88783 0.15575,0.40966 0.28655,0.80436 0.29067,0.87712 0.004,0.0728 0.12669,0.35502 0.27238,0.62728 0.20152,0.37653 0.1855,0.44585 -0.067,0.28982 -0.23668,-0.14629 -0.26523,-0.0985 -0.0995,0.1665 0.12778,0.2044 0.24139,0.49067 0.25247,0.6362 0.0429,0.56372 0.44864,2.42456 0.72109,3.30729 0.15719,0.50935 0.31283,1.22369 0.34587,1.5875 0.033,0.36383 0.20042,1.19724 0.37198,1.85211 0.32582,1.2437 0.44724,1.97792 0.65814,3.97965 0.0696,0.66079 0.37598,1.76524 0.68078,2.45433 0.3048,0.68902 0.52044,1.45803 0.47919,1.70889 -0.0413,0.25085 0.002,0.57851 0.0962,0.7281 0.0941,0.14965 0.30409,1.28075 0.46652,2.51354 0.16243,1.23286 0.34428,2.38438 0.40411,2.55892 0.0729,0.21281 0.82702,-0.0336 2.28744,-0.74723 4.78979,-2.34067 9.33719,-2.82218 18.14502,-1.92135 1.595,0.16314 1.43929,0.45831 1.89118,-3.58514 0.19326,-1.72923 0.40194,-2.56547 0.67885,-2.72047 0.27889,-0.15608 0.35281,-0.45879 0.2444,-1.00086 -0.0855,-0.42739 -0.068,-0.98912 0.0389,-1.24825 0.10689,-0.25916 0.23463,-0.86067 0.28388,-1.33671 0.0493,-0.47603 0.18134,-1.01182 0.29353,-1.19059 0.11219,-0.17884 0.1697,-0.53348 0.1278,-0.78817 -0.0419,-0.25466 0.0631,-0.46302 0.23335,-0.46302 0.17024,0 0.24099,-0.1786 0.15723,-0.39688 -0.0838,-0.21825 -0.0347,-0.39687 0.10902,-0.39687 0.14663,0 0.18846,-0.2903 0.0953,-0.66143 -0.0954,-0.38011 -0.0518,-0.66146 0.10248,-0.66146 0.14767,0 0.20622,-0.23815 0.13011,-0.5292 -0.0804,-0.30757 -0.008,-0.52916 0.17268,-0.52916 0.17108,0 0.23691,-0.11999 0.14628,-0.26662 -0.0906,-0.14664 0.0214,-0.45279 0.24897,-0.68035 0.25096,-0.25093 0.41375,-0.87569 0.41375,-1.58787 0,-1.54895 4.08509,-11.13573 5.10157,-11.97227 0.2351795,-0.19351 0.5619895,-0.75909 0.7262395,-1.25677 0.16425,-0.49765 0.46558,-0.90487 0.66962,-0.90487 0.20403,0 0.60153,-0.44649 0.88331,-0.99216 0.28179,-0.54573 0.93527,-1.40894 1.45219,-1.91823 0.51691,-0.50935 0.94363,-1.0591 0.94825,-1.22166 0.019,-0.66945 4.51719,-4.81606 5.03656003,-4.64294 0.18544,0.0618 0.27356,0.008 0.19581,-0.12038 -0.0777,-0.12798 0.0247,-0.38624 0.22776,-0.57391 0.28373,-0.26226 0.3691,-0.26586 0.3691,-0.0156 0,0.17907 0.17481,0.0945 0.38846,-0.18802 0.21365,-0.28246 0.39224997,-0.41589 0.39687997,-0.29651 0.005,0.1194 0.81208,-0.20228 1.79435,-0.71483 3.78419,-1.97461 7.5850505,-3.12584 11.4432305,-3.46601 0.94588,-0.0834 2.3151,-0.21138 3.04271,-0.2844 1.79477,-0.18011 7.82132,0.52863 11.37225,1.33741 1.59808,0.36399 2.9673,0.66363 3.04271,0.66585 0.0754,0.003 -0.0415,0.13163 -0.25975,0.28755 -0.3129,0.22349 -0.25942,0.25286 0.25272,0.1388 1.14969,-0.25604 9.49053,2.94915 11.41269,4.38563 0.49626,0.37087 2.50964,1.64872 4.47417,2.83969 4.52974,2.74606 8.63342,5.58062 9.15283,6.32217 0.22119,0.31581 0.56071,0.5742 0.75446,0.5742 0.19378,0 0.90139,0.54133 1.5725,1.20295 0.67112,0.66162 1.22021,1.13787 1.22021,1.05834 0,-0.0795 0.26789,0.12326 0.59531,0.45069 0.32742,0.32742 0.57332,0.6613 0.54643,0.74197 -0.0269,0.0806 0.42358,0.43783 1.00102,0.79375 0.61736,0.38049 1.23703,1.05389 1.5041,1.63451 0.2498,0.54309 0.66254,1.05712 0.9172,1.14232 0.25467,0.0852 0.46302,0.25352 0.46302,0.37409 0,0.12054 1.08048,1.33292 2.40106,2.69415 1.32059,1.3612 2.62386,2.95119 2.89616,3.53327 0.2723,0.58208 0.79522,1.46307 1.16202,1.9577 0.36681,0.49467 0.59296,1.0191 0.50256,1.16539 -0.0904,0.14626 -0.0386,0.18822 0.11517,0.0932 0.28013,-0.17311 1.46073,1.53276 1.47193,2.12683 0.003,0.17383 0.0932,0.29289 0.19979,0.26458 0.50184,-0.13319 4.64355,6.86158 4.15857,7.02324 -0.43712,0.1457 0.15038,1.52622 0.64696,1.52024 0.23181,-0.003 0.21301,-0.0838 -0.0605,-0.26054 -0.2183,-0.14107 -0.27784,-0.26013 -0.13231,-0.26458 0.14552,-0.004 0.10305,-0.11046 -0.0944,-0.23556 -0.2401,-0.15216 -0.26536,-0.2853 -0.0763,-0.40216 0.1616,-0.0999 0.52997,0.31001 0.85999,0.95689 0.45091,0.88386 0.48071,1.05143 0.13604,0.76538 -0.66126,-0.54879 -0.71672,-0.26503 -0.17711,0.90623 0.61468,1.33416 1.24216,2.16014 1.46885,1.93347 0.0968,-0.0968 -0.0603,-0.41228 -0.34913,-0.70107 -0.58669,-0.58674 -1.0022,-1.63568 -0.64788,-1.63568 0.21525,0 0.85036,1.13795 1.9758,3.5402 0.31682,0.6762 0.363,0.94716 0.1353,0.79375 -0.19013,-0.12811 -0.13801,-0.0403 0.11582,0.19506 0.25384,0.2354 1.09064,1.84274 1.85953,3.57187 0.7689,1.72916 1.46654,3.20344 1.55033,3.2762 0.54686,0.47485 3.15044,9.94266 2.94004,10.69136 -0.0371,0.1322 0.0333,0.3108 0.15647,0.3969 0.34857,0.2436 1.60299,4.9166 2.04784,7.6286 1.47592,8.998 1.57027,27.8191 0.15294,30.5058 -0.11811,0.2239 -0.30272,0.9383 -0.41026,1.5875 -0.10753,0.6493 -0.42813,1.6567 -0.71242,2.2388 -0.28434,0.5821 -0.55558,1.4751 -0.60283,1.9844 -0.0472,0.5093 -0.21759,1.2612 -0.37861,1.6709 -0.161,0.4096 -0.29273,0.8561 -0.29273,0.9921 0,0.1361 -0.10731,0.2474 -0.23845,0.2474 -0.25781,0 -0.99762,1.1397 -2.2327,3.4396 -0.42981,0.8003 -0.8533,1.5147 -0.9411,1.5875 -0.0878,0.073 -0.32364,0.4299 -0.52412,0.7937 -1.38893,2.5204 -4.56002,6.0199 -10.30923,11.3771 -4.3179,4.0235 -5.77165,4.9959 -13.53565,9.0545 -1.96453,1.027 -4.04812,2.2064 -4.63021,2.621 -1.29492,0.9223 -4.11689,2.2808 -5.40126,2.6003 -0.52181,0.1297 -1.96984,0.5964 -3.21786,1.037 -3.16036,1.1157 -9.62097,2.7462 -12.28296,3.0999 -0.7276,0.097 -1.5081,0.2714 -1.73444,0.3883 -0.22634,0.1169 -0.94072,0.2505 -1.5875,0.2969 -1.16653,0.084 -3.12405,1.9848 -3.15182,3.061 -0.005,0.1819 -0.10286,0.3307 -0.21814,0.3307 -0.20024,0 -2.17164,3.1861 -2.17164,3.5097 0,0.086 0.14883,0.1941 0.33073,0.2412 0.1819,0.047 1.9976,0.9749 4.03489,2.0619 3.98807,2.1277 7.27604,3.7516 7.27604,3.5935 0,-0.098 -3.87008,-2.3088 -4.36562,-2.4934 -0.7452,-0.2775 -3.05673,-1.6954 -2.94544,-1.8067 0.34328,-0.3433 11.51865,6.0511 11.53757,6.6016 0.026,0.7564 -5.97126,-1.875 -9.95586,-4.3684 -0.55963,-0.3502 -1.91049,-1.0946 -3.0019,-1.6543 -1.0914,-0.5596 -2.19273,-1.1932 -2.44739,-1.408 -1.11749,-0.9422 -0.36923,0.5271 1.52563,2.9958 1.09376,1.425 2.05936,2.8727 2.14579,3.217 0.23077,0.9195 -1.67674,3.9425 -3.31448,5.2528 -1.62887,1.3032 -1.62762,1.2742 -0.0923,2.149 0.69122,0.3938 1.47546,0.9644 1.74275,1.2679 0.26729,0.3035 0.40175,0.3911 0.2988,0.1947 -0.15144,-0.2889 -0.0786,-0.299 0.38132,-0.053 0.31268,0.1674 0.50693,0.4039 0.43166,0.5257 -0.0753,0.1218 0.0702,0.2051 0.32331,0.1852 0.2531,-0.02 0.43726,0.092 0.40924,0.2488 -0.028,0.1568 0.80543,0.7787 1.85209,1.382 1.04666,0.6033 1.70265,1.1002 1.45776,1.104 -0.24488,0 -2.35098,-1.1296 -4.6802,-2.5188 -4.23496,-2.5258 -4.23496,-2.5258 -5.85988,-1.2639 -1.68536,1.3088 -2.00078,2.3228 -0.97306,3.1283 0.42297,0.3315 1.52575,3.2007 1.31224,3.4142 -0.0867,0.087 -0.0273,0.1576 0.13198,0.1576 0.72383,0 0.68104,2.856 -0.0657,4.3822 -1.80099,3.6811 -4.43692,5.6351 -19.4503805,14.4185 -1.81901,1.0642 -3.72400997,2.2492 -4.23332997,2.6333 -0.50932,0.3842 -2.56464003,1.5034 -4.56737003,2.4873 -2.00274,0.9838 -4.23229,2.1952 -4.95457,2.6921 -0.7222695,0.4968 -1.3696495,0.9033 -1.4386295,0.9033 -0.069,0 -0.67933,0.387 -1.35634,0.8599 -1.40835,0.9838 -1.50899,1.0426 -2.76434,1.6143 -0.84076,0.3829 -3.14131,1.6614 -5.55625,3.0878 -1.02879,0.6077 -3.85933,2.4755 -6.20612,4.0953 -2.66547,1.8397 -2.6943,1.8502 -4.11263,1.4885 z"
         style="fill:#f49e52;fill-opacity:1;stroke:none;stroke-width:15.7871;stroke-miterlimit:4;stroke-dasharray:none;stroke-opacity:1" />
      <path
         id="path978-3-5"
         d="m 247.25659,1170.7971 c -0.0995,-0.3963 -0.0395,-1.4449 0.13322,-2.3301 0.87479,-4.4828 1.22065,-10.1491 1.22065,-19.998 0,-9.3733 1.16165,-8.7351 -12.7,-6.9769 -5.71106,0.7245 -20.42316,-0.608 -28.44271,-2.576 -2.05592,-0.5045 -10.41183,-3.2744 -12.30312,-4.0784 -0.74801,-0.318 -4.27458,-1.6982 -6.61459,-2.5887 -2.42903,-0.9245 -4.72283,-2.1459 -9.27279,-4.9376 -4.38939,-2.6931 -7.03382,-5.4972 -6.30159,-6.682 0.10645,-0.1722 0.0552,-0.2121 -0.12745,-0.099 -0.70707,0.437 0.50565,-3.0743 2.29127,-6.6341 1.28728,-2.5663 1.29048,-2.5064 -0.23342,-4.3702 -2.48422,-3.0382 -3.12549,-5.2531 -2.53838,-8.7669 0.21317,-1.2757 0.21317,-1.2757 -0.66577,-1.1172 -0.48342,0.087 -1.41473,0.2012 -2.06957,0.2534 -1.21174,0.097 -2.45965,0.3389 -3.175,0.6167 -0.61725,0.2397 -0.8585,0.2392 -1.85209,0 -0.50932,-0.1248 -1.46182,-0.3376 -2.11666,-0.4729 -10.51362,-2.1722 -16.74101,-15.389 -10.40226,-22.0773 2.74638,-2.8978 3.81739,-4.3633 3.19236,-4.3682 -0.65741,-0.01 -3.22429,-1.3585 -4.01733,-2.1181 -3.48017,-3.3335 -5.14225,-5.2206 -5.29823,-6.0156 -0.0499,-0.2545 -0.57909,-1.2366 -1.17591,-2.1824 -1.70963,-2.7095 -3.25369,-8.208 -2.44523,-8.7077 0.27208,-0.1681 0.25686,-0.2963 -0.0745,-0.6277 -0.4199,-0.4199 -0.58621,-1.7764 -0.21799,-1.778 0.10914,0 0.22981,-0.9172 0.26821,-2.0371 0.0384,-1.12 0.15761,-2.1019 0.265,-2.182 0.10737,-0.08 0.37365,-0.5029 0.59169,-0.9394 2.55405,-5.1136 6.83482,-7.5406 12.66804,-7.1822 2.41967,0.1487 5.65869,0.9296 6.23144,1.5023 0.14076,0.1408 0.42111,0.2559 0.62301,0.2559 0.86432,0 5.77514,3.4953 6.02737,4.29 0.0838,0.2641 0.26289,0.4119 0.39793,0.3285 0.13505,-0.083 0.24786,0 0.25072,0.1946 0.003,0.1904 0.51594,-0.8443 1.14017,-2.2995 1.17451,-2.738 2.35252,-4.9995 2.96315,-5.6886 0.19344,-0.2183 0.35922,-0.5159 0.36841,-0.6614 0.009,-0.1456 0.19624,-0.4743 0.41571,-0.7307 0.21947,-0.2563 0.39904,-0.5653 0.39904,-0.6865 0,-0.1214 0.23813,-0.4361 0.52917,-0.6995 0.29104,-0.2634 0.52917,-0.6176 0.52917,-0.7871 0,-0.1694 0.26789,-0.5637 0.59531,-0.8761 1.88865,-1.8019 2.6244,-3.1408 1.98437,-3.6111 -0.25466,-0.1872 -0.46302,-0.476 -0.46302,-0.6418 0,-0.1659 -0.18563,-0.3016 -0.41248,-0.3016 -0.22688,0 -0.3433,-0.112 -0.25871,-0.2488 0.0846,-0.1369 -0.0709,-0.4643 -0.34539,-0.7276 -0.27453,-0.2634 -0.65177,-0.7714 -0.83833,-1.1291 -0.18656,-0.3576 -0.88731,-1.3697 -1.55723,-2.2489 -1.49281,-1.9593 -1.94162,-2.7394 -1.75236,-3.0457 0.0798,-0.1291 -0.0887,-0.3089 -0.37442,-0.3996 -0.28572,-0.091 -0.46061,-0.3183 -0.38867,-0.5058 0.072,-0.1876 -0.076,-0.5089 -0.32885,-0.7141 -0.29715,-0.2412 -0.38944,-0.2561 -0.26101,-0.042 0.10927,0.1819 0.14086,0.3307 0.0702,0.3307 -0.0707,0 -0.51234,-0.6846 -0.98144,-1.5213 -0.46916,-0.8368 -1.13096,-1.898 -1.47072,-2.3584 -1.73751,-2.3547 -7.72472,-15.1294 -7.3642,-15.7127 0.0854,-0.1382 0.0222,-0.2513 -0.14052,-0.2513 -0.16272,0 -0.22852,-0.1089 -0.14629,-0.242 0.0823,-0.1331 0.0509,-0.2819 -0.0696,-0.3307 -0.20539,-0.083 -1.56175,-3.82492 -2.57371,-7.10022 -0.58414,-1.89074 -2.73409,-10.24236 -2.89472,-11.24482 -1.12371,-7.01413 -1.56673,-20.92976 -0.64818,-20.36207 0.24096,0.14891 0.6322,-1.96289 0.40569,-2.18945 -0.0872,-0.0872 -0.15859,0.1193 -0.15859,0.45884 0,0.33954 -0.0723,0.54504 -0.16071,0.45665 -0.0884,-0.0884 -0.0688,-1.03101 0.0436,-2.09466 0.1615,-1.52836 0.24927,-1.79517 0.41849,-1.27241 0.13132,0.40566 0.15682,0.0617 0.0659,-0.88958 -0.0825,-0.86309 -0.0453,-1.48741 0.0838,-1.40761 0.12764,0.0789 0.18249,-0.2812 0.1219,-0.80018 -0.0784,-0.67169 -0.0214,-0.88868 0.19817,-0.75303 0.22077,0.13642 0.25681,-0.0148 0.12687,-0.53252 -0.12208,-0.48639 -0.0885,-0.66562 0.10266,-0.54751 0.40158,0.24818 0.65976,-0.74953 0.44593,-1.72323 -0.13724,-0.62484 -0.1006,-0.77163 0.15345,-0.6146 0.22069,0.13639 0.26768,0.0994 0.13872,-0.1093 -0.28328,-0.45834 0.41622,-3.03096 0.70993,-2.61104 0.1514,0.21643 0.1795,0.14319 0.0811,-0.21119 -0.17894,-0.64421 0.93739,-4.02825 2.48309,-7.52729 0.61071,-1.38245 1.21012,-2.83242 1.33207,-3.22207 0.12195,-0.38973 0.79079,-1.5208 1.4863,-2.51357 0.69551,-0.99274 1.53802,-2.22173 1.87229,-2.73103 0.33428,-0.50932 0.74478,-1.08727 0.91226,-1.28439 0.16751,-0.19709 0.88138,-1.09003 1.58642,-1.98435 1.51463,-1.92127 3.9217,-4.59073 5.36376,-5.94844 0.56624,-0.53309 1.51874,-1.49069 2.11667,-2.12797 4.80936,-5.12589 15.7117,-10.30838 20.36281,-9.67957 1.46687,0.19832 4.51199,1.25103 5.15318,1.78147 0.32756,0.27099 2.32892,4.20892 2.58588,5.08804 0.24731,0.84603 0.67575,3.31388 0.71758,4.13314 0.0329,0.64389 0.1574,0.91662 0.37965,0.83156 0.38875,-0.14875 0.45011,0.35425 0.0718,0.58806 -0.27643,0.17087 -0.2128,4.00916 0.0864,5.21208 0.0972,0.39087 0.0636,0.78063 -0.0746,0.86609 -0.31409,0.19407 -0.5066,1.64052 -0.67054,5.03783 -0.13782,2.85646 -0.73078,8.55109 -1.15707,11.1125 -0.14531,0.87312 -0.34513,2.5995 -0.44403,3.83645 -0.0989,1.23693 -0.29615,3.32053 -0.43836,4.63021 -0.29604,2.72669 -0.3211,4.08104 -0.10155,5.49008 0.088,0.56475 0.0452,0.99221 -0.0994,0.99221 -0.15759,0 -0.16481,0.27607 -0.019,0.72758 0.1292,0.40021 0.30401,2.15638 0.38846,3.90263 0.0844,1.74625 0.20257,3.47263 0.26252,3.83646 0.43638,2.64713 0.89831,7.56513 0.7769,8.27114 -0.10139,0.58957 -0.0679,0.74459 0.10718,0.49676 0.38417,-0.54364 0.95369,2.97624 0.59116,3.65365 -0.16481,0.30801 -0.176,0.57113 -0.0282,0.66252 0.13491,0.0834 0.29538,0 0.35658,-0.1824 0.0612,-0.18368 0.0575,0.008 -0.008,0.42674 -0.0926,0.58883 -0.0385,0.71186 0.23945,0.54452 0.30046,-0.18093 0.30017,-0.14365 -0.003,0.22833 -0.30504,0.37613 -0.30342,0.46646 0.0103,0.58687 0.20397,0.0783 0.38878,0.34759 0.41058,0.59846 0.0709,0.81542 1.68598,5.46489 2.13442,6.14466 0.24003,0.3638 0.40574,0.76327 0.36825,0.88773 -0.0375,0.12446 0.0593,0.37984 0.21505,0.56745 0.15571,0.18767 0.26006,0.44302 0.23183,0.56748 -0.0636,0.28057 0.2046,1.05066 0.70887,2.03565 0.21151,0.41304 0.31692,0.8604 0.23429,0.99404 -0.0826,0.1337 0.0353,0.31422 0.26191,0.40116 0.22667,0.087 0.34306,0.27001 0.25855,0.40669 -0.0845,0.13666 0.0101,0.51115 0.20955,0.83217 0.19971,0.32102 0.39804,1.00039 0.44077,1.50971 0.0427,0.5093 0.27657,1.21063 0.51959,1.55845 0.2431,0.34785 0.51271,0.76454 0.59923,0.92607 0.61166,1.14167 0.76872,1.52517 0.76872,1.87747 0,0.2203 0.17862,0.4005 0.3969,0.4005 0.21828,0 0.39685,-0.1261 0.39685,-0.2802 0,-0.1541 0.10189,-0.2172 0.22635,-0.1403 0.12454,0.077 0.17055,-0.1521 0.10234,-0.5091 -0.0683,-0.357 -0.0345,-0.8594 0.075,-1.1165 0.10946,-0.25708 0.22453,-0.64605 0.2557,-0.86433 0.59224,-4.14806 4.09723,-8.66494 9.26256,-11.93675 3.86257,-2.44663 5.07386,-2.97723 8.37327,-3.6679 1.27026,-0.26588 2.45263,-0.57187 2.62752,-0.67992 1.19981,-0.74152 12.11498,0.28175 13.38003,1.25439 0.16706,0.12845 0.53076,0.27725 0.8082,0.33067 0.97808,0.18833 2.33344,0.87466 2.83167,1.43383 0.27721,0.31115 0.66712,0.56568 0.86644,0.56568 0.19933,0 0.46521,0.26789 0.59084,0.59534 0.26887,0.7008 1.78945,2.49338 1.9591,2.30957 0.31967,-0.34639 1.50355,-2.93928 1.50355,-3.29297 0,-0.2231 0.10793,-0.40569 0.23982,-0.40569 0.13189,0 0.18111,-0.26789 0.10933,-0.59528 -0.0939,-0.42842 -0.0597,-0.49557 0.12207,-0.23948 0.32563,0.45889 0.67149,-0.75411 0.40963,-1.43655 -0.12964,-0.3378 -0.0839,-0.40376 0.17087,-0.24628 0.26374,0.16299 0.31589,0.0474 0.21548,-0.47776 -0.0728,-0.38105 -0.0454,-0.63902 0.0609,-0.5733 0.2394,0.14793 0.5923,-1.92754 0.38484,-2.26327 -0.24302,-0.39317 0.40587,-3.46839 0.81902,-3.88157 0.20812,-0.20815 0.37663,-0.51877 0.37441,-0.69027 -0.003,-0.18283 -0.1102,-0.14764 -0.26056,0.085 -0.2118,0.32774 -0.25432,0.30472 -0.24424,-0.13229 0.019,-0.8296 0.71054,-4.29363 0.74377,-3.72621 0.0437,0.74724 0.20225,0.42958 0.38521,-0.77171 0.12197,-0.80118 0.0972,-0.92977 -0.10197,-0.52914 -0.19373,0.38968 -0.22757,0.14552 -0.12835,-0.92604 0.0741,-0.80039 0.13761,-1.87195 0.1411,-2.38125 0.004,-0.61256 0.0826,-0.80587 0.23138,-0.57097 0.16433,0.25921 0.26043,0.17002 0.35613,-0.33073 0.0721,-0.37719 0.019,-0.6858 -0.11769,-0.6858 -0.14745,0 -0.18489,-0.83542 -0.0919,-2.05052 0.25402,-3.31946 0.20571,-7.98727 -0.10473,-10.12034 -0.15883,-1.09138 -0.31543,-3.43114 -0.34803,-5.19938 -0.0326,-1.76829 -0.13621,-3.16788 -0.23027,-3.11023 -0.25146,0.1542 -0.57732,-4.03574 -0.34329,-4.41439 0.1203,-0.1947 0.0888,-0.25413 -0.0795,-0.15007 -0.18005,0.11131 -0.341,-0.50617 -0.45482,-1.74506 -0.0969,-1.05455 -0.27866,-2.57217 -0.40394,-3.37251 -0.29337,-1.87423 -0.59838,-6.52489 -0.57261,-8.73125 0.0402,-3.44088 0.72374,-9.09435 1.07368,-8.8803 0.0868,0.053 0.16613,-0.29475 0.17637,-0.7729 0.0103,-0.47816 0.49903,-1.87068 1.0863,-3.09447 1.98255,-4.13181 6.33259,-5.37594 12.19044,-3.48652 1.63711,0.52804 2.97656,1.05354 2.97656,1.16777 0,0.11423 0.34769,0.28406 0.77261,0.37739 0.42495,0.0933 1.16909,0.57777 1.65362,1.07653 0.48456,0.49877 1.02989,0.90812 1.21182,0.90967 0.1819,0.002 0.3307,0.10176 0.3307,0.22269 0,0.12093 0.32745,0.38863 0.72758,0.59489 0.40018,0.20626 0.78716,0.4427 0.85992,0.52543 0.0728,0.0827 0.84664,0.67822 1.71982,1.32334 0.87307,0.64511 1.75297,1.32995 1.95535,1.52188 0.2023,0.19193 0.64778,0.53237 0.98986,0.75655 0.34213,0.22416 0.5452,0.53203 0.45122,0.68411 -0.094,0.15208 -0.0481,0.20063 0.10197,0.10787 0.15007,-0.0928 1.49516,0.99015 2.98897,2.40648 1.49384,1.41637 2.93722,2.73079 3.20757,2.92092 0.2703,0.19016 0.49149,0.47453 0.49149,0.63188 0,0.15737 0.45001,0.77573 1.00002,1.37406 0.55007,0.59838 1.58549,1.92135 2.30111,2.94002 0.71559,1.01862 1.63478,2.24317 2.04266,2.72116 0.40791,0.478 0.7416,1.04357 0.7416,1.2568 0,0.2132 0.12613,0.38764 0.28025,0.38764 0.15409,0 0.20611,0.11991 0.11557,0.26641 -0.0906,0.1465 0.0654,0.59301 0.34655,0.99216 0.28112,0.39923 0.6019,1.02346 0.71284,1.38729 0.11094,0.36378 0.39976,0.95909 0.6418,1.32289 1.0396,1.56255 2.53664,5.65092 4.82256,13.17001 1.38237,4.54731 1.63396,23.53717 0.38933,29.38978 -0.22767,1.0704 -0.4768,2.89364 -0.55377,4.05162 -0.0769,1.158 -0.24339,2.30621 -0.36994,2.55167 -0.12655,0.24548 -0.31226,0.92257 -0.41275,1.50463 -0.10046,0.58208 -0.41378,1.68788 -0.69625,2.45732 -0.28255,0.76943 -0.51369,1.69219 -0.51369,2.05052 0,0.35835 -0.10456,0.65156 -0.23246,0.65156 -0.24675,0 -0.30099,0.12499 -1.66497,3.83643 -0.48128,1.30969 -0.96637,2.42115 -1.07794,2.47005 -0.1116,0.049 -0.1356,0.1976 -0.0533,0.3307 0.0823,0.1331 0.0532,0.242 -0.0645,0.2422 -0.11771,10e-5 -0.22952,0.2704 -0.24842,0.6006 -0.0373,0.6515 -2.90295,7.1775 -3.37873,7.6945 -0.16009,0.1739 -0.32713,0.4811 -0.37121,0.6827 -0.18962,0.8668 -0.84108,2.1345 -1.09698,2.1345 -0.15293,0 -0.26398,0.089 -0.24676,0.1984 0.0883,0.5591 -0.0637,0.8711 -0.34086,0.6998 -0.20441,-0.1263 -0.25543,-0.05 -0.15015,0.2242 0.0917,0.2389 -0.0578,0.6119 -0.35189,0.8781 -0.28123,0.2545 -0.51134,0.6215 -0.51134,0.8156 0,0.1941 -0.20836,0.5962 -0.46302,0.8936 -0.25466,0.2974 -0.43632,0.5936 -0.40367,0.6582 0.0326,0.065 -0.2395,0.4399 -0.60484,0.8341 -0.36531,0.3942 -0.60465,0.8718 -0.53189,1.0614 0.0728,0.1896 -0.0122,0.3165 -0.18892,0.2819 -0.17666,-0.035 -0.28622,0.1453 -0.24347,0.4 0.0428,0.2547 -0.0465,0.463 -0.19843,0.463 -0.1519,0 -0.27618,0.1191 -0.27618,0.2646 0,0.1455 -0.24246,0.5071 -0.53882,0.8034 -0.29633,0.2963 -0.46791,0.6535 -0.38126,0.7938 0.0867,0.1401 0.0586,0.2549 -0.0625,0.2549 -0.12102,0 -0.44445,0.4167 -0.71874,0.926 -0.27427,0.5094 -0.59902,0.9261 -0.72162,0.9261 -0.12261,0 -0.22305,0.1488 -0.22323,0.3307 0,0.3142 -0.60119,1.1097 -1.9485,2.5797 -0.33345,0.3638 -0.8296,1.0186 -1.10255,1.4552 -0.27297,0.4365 -0.90913,1.2632 -1.41369,1.8369 -0.56139,0.6384 -0.79439,1.0842 -0.60034,1.1489 0.17436,0.058 0.53959,0.5412 0.81156,1.0735 0.27199,0.5323 0.86222,1.3845 1.31162,1.8938 0.44942,0.5093 0.81899,1.1344 0.82132,1.3891 0.003,0.2546 0.11758,0.463 0.25611,0.463 0.31544,0 1.89331,2.2645 1.70738,2.4504 -0.0751,0.075 0.16349,0.4602 0.53015,0.8558 0.36666,0.3957 0.64815,0.7959 0.62553,0.8894 -0.0225,0.093 0.40862,1.1225 0.95829,2.2867 1.30265,2.7588 1.92897,4.1547 2.04931,4.5674 0.0581,0.1992 0.73795,-0.255 1.68378,-1.1251 1.54371,-1.4198 4.88691,-3.8392 5.30529,-3.8392 0.11451,0 0.43162,-0.2022 0.70472,-0.4493 0.2731,-0.2472 0.63968,-0.4749 0.8146,-0.5061 0.17491,-0.031 1.25113,-0.2663 2.39162,-0.5226 2.76773,-0.6218 7.35163,-0.2647 9.18461,0.7157 2.84869,1.5234 6.33296,4.9923 5.9685,5.9421 -0.0702,0.1829 0.0558,0.4031 0.27996,0.4891 0.22899,0.088 0.34126,0.3293 0.25617,0.5511 -0.0833,0.217 -0.0446,0.3946 0.0861,0.3946 0.33158,0 0.87762,2.7914 0.67247,3.4378 -0.0968,0.3052 -0.0484,0.5309 0.1139,0.5309 0.43362,0 0.33499,1.3082 -0.13401,1.7772 -0.31187,0.3118 -0.33645,0.4658 -0.0979,0.6133 0.35917,0.222 0.12441,2.5193 -0.28321,2.7712 -0.13073,0.081 -0.17526,0.3097 -0.099,0.5086 0.15126,0.3941 -0.35449,0.8399 -0.63484,0.5596 -0.0953,-0.095 -0.0341,-0.2592 0.13594,-0.3643 0.17084,-0.1055 0.21741,-0.3393 0.1042,-0.5225 -0.12825,-0.2075 -0.35788,0.2179 -0.6136,1.1368 -0.22479,0.8076 -0.32959,1.5172 -0.23294,1.5769 0.0967,0.06 0.19439,-0.139 0.21722,-0.4416 0.0491,-0.6516 0.50729,-1.179 0.78391,-0.9024 0.10737,0.1073 0.0796,0.278 -0.0618,0.3793 -0.14129,0.1012 -0.29858,0.4221 -0.34949,0.7132 -0.0509,0.291 -0.22955,0.6166 -0.3969,0.7235 -0.16735,0.1069 -0.21328,0.1962 -0.10205,0.1984 0.68903,0.014 -2.65324,5.2414 -4.80226,7.5112 -1.32443,1.3988 -6.26211,5.4575 -6.63946,5.4575 -0.12766,0 -0.42328,0.1912 -0.65699,0.4249 -0.48429,0.4843 -0.10194,1.2321 0.50991,0.9973 0.89262,-0.3425 5.25309,4.4139 4.76718,5.2001 -0.0873,0.1413 -0.0617,0.2569 0.0569,0.2569 0.8237,0 1.33826,3.8617 0.8781,6.5899 -1.59039,9.4289 -12.74466,15.3507 -22.13047,11.7491 -0.31363,-0.1204 -0.38944,-0.075 -0.25006,0.1509 0.79407,1.2848 0.0875,6.0188 -1.23369,8.2655 -0.64874,1.1031 -0.93578,1.475 -2.50894,3.2498 -0.55102,0.6217 -0.62225,0.8496 -0.37211,1.1907 1.21449,1.6559 3.98452,8.2767 3.52666,8.4294 -0.1754,0.058 -0.31888,0.5406 -0.31888,1.0715 0,0.8441 -0.21871,1.1743 -1.74456,2.6342 -2.00985,1.9227 -1.93651,0.9705 -0.74834,9.7179 0.82814,6.097 1.14231,8.8273 1.43084,12.4354 0.128,1.6007 0.3144,3.7582 0.4142,4.7943 0.19624,2.0374 -0.38738,9.3355 -1.07654,13.462 -0.0486,0.291 -0.0972,0.6181 -0.10803,0.7268 -0.12459,1.2526 -3.7217,3.7649 -4.86619,3.3985 -2.17902,-0.6975 -9.16188,-1.4536 -13.54201,-1.4664 -5.79956,-0.017 -8.3204,0.4906 -16.40416,3.3023 -3.42834,1.1924 -3.26575,1.1756 -3.47054,0.3596 z"
         style="fill:#f2c14e;fill-opacity:1;stroke-width:1.05247" />
    </g>
  </g>
</svg>
